<svg xmlns="http://www.w3.org/2000/svg" x="0" y="0" data-name="Layer 1" viewBox="0 0 100 125"><path d="M2.5,41.59,2,42l.11.62c0,.18.83,4.45,4.18,6.46a7.18,7.18,0,0,0,3.77,1,10.68,10.68,0,0,0,3.27-.56,7.77,7.77,0,0,0,4.82-3.78,6.35,6.35,0,0,0,.78.36c-.59,2-1.25,6.54.86,14.35a8.8,8.8,0,0,0,6.47,6.17c.71.58,4.66,4,4.66,7.61A41.54,41.54,0,0,0,31.27,79c.24,2.06.48,4.2-.11,4.87a1.37,1.37,0,0,0-.27,1.5c.2.44.73,1.57,7.72,1.57H39c0,.37,0,.61,0,.62l0,1H47.9l.06-.94c0-.72,1-15.83.72-21.94a19.18,19.18,0,0,0,13,.6,11.59,11.59,0,0,0,.61,1.31l-2.21,1.58,1.16,1.63,2.13-1.53a9.14,9.14,0,0,0,3.77,2.91l-1,2.13,1.82.83,1.13-2.47c.23,0,.46.06.7.07h.11c1.09,1.36,5.34,7.29,2.31,13.14L71.67,87l1.13.36a15.88,15.88,0,0,0,4.45.51c.51,0,1,0,1.36,0v.77h8.32l.3-.43c3.64-5.18,1-16.79.42-19,1.11-2.53,7.39-18,2.2-31.8a12.86,12.86,0,0,1,4,11.38l2,.29c1.43-9.55-6.33-14.71-7.86-15.63-.18-.32-.36-.64-.55-.95-5.51-8.83-20-6.82-32.69-5.05-10.36,1.44-20.15,2.8-22.81-1.8q-.21-.36-.43-.71L31.4,25c3.1-3.33,3.83-7,1.45-13.52L31.12,6.75l-.21,5a9.46,9.46,0,0,1-4.71,8l0,0c-4.36-2.66-9.75-3-13.74-.8a10.16,10.16,0,0,0-2.33,1.75c-1.41-.31-5.37-1.49-5.24-4.91l.35-9.58-2.32,9.3C1.77,20.17,2.34,25.9,7.25,28.33,6.83,38.24,2.53,41.56,2.5,41.59ZM33.1,84.53c.66-1.36.43-3.35.16-5.76a40.12,40.12,0,0,1-.35-4.56c0-2.78-1.71-5.34-3.23-7.06A12.14,12.14,0,0,0,35.8,66c1.21,2.54,1.06,3.61.92,4.66a6.82,6.82,0,0,0,.7,4.46c1.24,2.65,1.54,7,1.59,9.84A33,33,0,0,1,33.1,84.53Zm30.49-18.8a26.86,26.86,0,0,0,8.71-4.95,19.77,19.77,0,0,0,3.06,9.57,15.5,15.5,0,0,1-5.46.44C66,70.61,64.24,67.34,63.59,65.73Zm10.93,20c2.1-5.36-.44-10.38-2.12-12.88A11.46,11.46,0,0,0,76.58,72c.27.33.53.62.77.88a12.5,12.5,0,0,0,2.37,2c-.71,2.44-1,7.51-1.07,10.91A22.8,22.8,0,0,1,74.52,85.69ZM84.65,32.12c-.91,2.39-2.65,5.46-4,5.46h0c-2.74-.11-3.37,2.22-3.85,4.1a14.09,14.09,0,0,1-.86,2.61.84.84,0,0,1-.61.43c-2.35.66-8.17-1.8-10.55-3.35-2-1.32-4.69-.25-7.52.87-2,.79-4.06,1.62-5.68,1.47-1-.09-1.23-.34-1.23-.34-.08-.24,0-1.38,4.95-5.93C59,34,58.82,30.73,58.29,29,68.71,27.57,79.61,26.65,84.65,32.12ZM4.45,19.81A9.84,9.84,0,0,0,8.8,22.37a10.08,10.08,0,0,0-1.37,3.77C5.12,24.61,4.49,22,4.45,19.81Zm4.84,7.93a7.92,7.92,0,0,1,4.16-7.07,11.76,11.76,0,0,1,10.6.15,11.47,11.47,0,0,1-1.72.52l.18,1,.18,1c.08,0,6.89-1.36,9.35-7.37,1,5.21-1.38,7.63-5.88,10.87l1.17,1.62c1-.72,1.88-1.41,2.68-2.11l.19.31C33.54,32.39,44,30.94,55,29.41l1.27-.18c.43,1.07.92,3.67-2.39,6.73-4.61,4.27-6,6.37-5.48,8,.5,1.47,2.34,1.64,2.94,1.69,2.09.18,4.38-.72,6.6-1.6s4.54-1.81,5.69-1.06c1.69,1.1,7.05,3.78,10.72,3.78a5.42,5.42,0,0,0,1.46-.18,2.81,2.81,0,0,0,1.88-1.49,15.87,15.87,0,0,0,1-3c.54-2.11.82-2.65,1.83-2.6C83.11,39.7,85,36.32,86,34c8.67,14.65-.26,34.44-.35,34.64l-.15.33.09.35c0,.12,3.19,12.12.23,17.25H80.64c.13-5.12.58-10.75,1.15-11.58l1.32-1.63h-2C80,73,73.7,68.17,74.29,58l.37-6.41-2.31,6c-.57,1.49-4.55,4.64-9.73,6.38-3.21,1.08-9.36,2.4-14.57-.83l-1.91-1.18.4,2.21C47,66.81,46.44,79.48,46,86.6H41c0-2.47-.08-8.69-1.79-12.35a4.9,4.9,0,0,1-.53-3.34c.2-1.44.42-3.08-1.73-7L36,62.28l-.87,1.66c-.28.53-3,1.51-6.35,1.14-2.2-.24-6.05-1.24-7.12-5.18-2.06-7.63-1.32-11.8-.84-13.38.2,0,.4,0,.62.05,2.6,0,5.25-1.45,7.89-4.23L27.93,41c-2.23,2.36-4.39,3.57-6.41,3.61a4.67,4.67,0,0,1-3.12-1.11L17.1,42.16,16.7,44a5.44,5.44,0,0,1-4,3.63,6.42,6.42,0,0,1-5.41-.25,7.91,7.91,0,0,1-3.12-4.58C5.56,41.45,9.05,37.19,9.29,27.73Z"/><circle cx="17.79" cy="30.82" r="1.54"/></svg>